<svg width="21" height="15" viewBox="0 0 21 15" fill="none" xmlns="http://www.w3.org/2000/svg">
<path d="M6.7418 0C6.36859 -2.03496e-06 5.99976 0.0803408 5.66037 0.235569C5.32098 0.390797 5.01898 0.617271 4.7749 0.8996L0.470602 5.8799C0.166407 6.23308 -0.000623833 6.68388 1.7509e-06 7.15V11.05C1.7509e-06 11.912 0.342412 12.7386 0.951905 13.3481C1.5614 13.9576 2.38805 14.3 3.25 14.3H5.85C6.71196 14.3 7.53861 13.9576 8.1481 13.3481C8.75759 12.7386 9.1 11.912 9.1 11.05V9.1H11.7V11.05C11.7 11.912 12.0424 12.7386 12.6519 13.3481C13.2614 13.9576 14.088 14.3 14.95 14.3H17.55C18.412 14.3 19.2386 13.9576 19.8481 13.3481C20.4576 12.7386 20.8 11.912 20.8 11.05V7.15C20.8 6.5923 20.566 6.0905 20.1916 5.7356L16.0251 0.9022C15.7811 0.619231 15.479 0.392169 15.1394 0.236481C14.7997 0.0807919 14.4305 0.000133744 14.0569 0H13C12.8276 0 12.6623 0.0684821 12.5404 0.190381C12.4185 0.312279 12.35 0.477609 12.35 0.65C12.35 0.822391 12.4185 0.987721 12.5404 1.10962C12.6623 1.23152 12.8276 1.3 13 1.3H14.0569C14.2437 1.30007 14.4283 1.3404 14.5981 1.41824C14.768 1.49608 14.919 1.60962 15.041 1.7511L18.0141 5.2H13.65C13.1328 5.2 12.6368 5.40545 12.2711 5.77114C11.9054 6.13684 11.7 6.63283 11.7 7.15V7.8H9.1V7.15C9.1 6.63283 8.89456 6.13684 8.52886 5.77114C8.16316 5.40545 7.66717 5.2 7.15 5.2H2.7755L5.759 1.7498C5.88097 1.60872 6.03186 1.49553 6.20144 1.41792C6.37102 1.34031 6.55531 1.30009 6.7418 1.3H7.8C7.97239 1.3 8.13772 1.23152 8.25962 1.10962C8.38152 0.987721 8.45 0.822391 8.45 0.65C8.45 0.477609 8.38152 0.312279 8.25962 0.190381C8.13772 0.0684821 7.97239 0 7.8 0H6.7418ZM7.8 7.15V11.05C7.8 11.5672 7.59456 12.0632 7.22886 12.4289C6.86316 12.7946 6.36717 13 5.85 13H3.25C2.73283 13 2.23684 12.7946 1.87114 12.4289C1.50545 12.0632 1.3 11.5672 1.3 11.05V7.15C1.3 6.97761 1.36848 6.81228 1.49038 6.69038C1.61228 6.56848 1.77761 6.5 1.95 6.5H7.15C7.32239 6.5 7.48772 6.56848 7.60962 6.69038C7.73152 6.81228 7.8 6.97761 7.8 7.15ZM13 11.05V7.15C13 6.97761 13.0685 6.81228 13.1904 6.69038C13.3123 6.56848 13.4776 6.5 13.65 6.5H18.85C19.006 6.5 19.149 6.5546 19.2608 6.6469L19.3323 6.7288L19.3401 6.7236C19.4433 6.84168 19.5001 6.99319 19.5 7.15V11.05C19.5 11.5672 19.2946 12.0632 18.9289 12.4289C18.5632 12.7946 18.0672 13 17.55 13H14.95C14.4328 13 13.9368 12.7946 13.5711 12.4289C13.2054 12.0632 13 11.5672 13 11.05Z" fill="#9D9D9D"/>
</svg>
