<svg width="26" height="26" viewBox="0 0 26 26" fill="none" xmlns="http://www.w3.org/2000/svg">
<path fill-rule="evenodd" clip-rule="evenodd" d="M15.6618 3.04129C14.8418 2.69223 13.9413 2.5 13 2.5C9.53413 2.5 6.6225 5.10603 6.23976 8.55071L5.96697 11.0058C5.94717 11.184 5.93843 11.2623 5.92824 11.3387C5.80461 12.2667 5.50243 13.1619 5.03842 13.9749C5.00017 14.0419 4.95971 14.1094 4.86743 14.2632L4.24123 15.3069L4.21752 15.3464C3.91902 15.8438 3.66041 16.2748 3.49913 16.6355C3.33445 17.0039 3.19549 17.4569 3.34568 17.9381C3.41987 18.1758 3.54395 18.3949 3.70962 18.5809C4.04497 18.9572 4.50491 19.0711 4.90548 19.1194C5.2978 19.1667 5.80038 19.1667 6.3805 19.1667H6.38052L6.42659 19.1667H19.5734L19.6195 19.1667H19.6195C20.1996 19.1667 20.7022 19.1667 21.0945 19.1194C21.4951 19.0711 21.955 18.9572 22.2904 18.5809C22.4561 18.3949 22.5801 18.1758 22.6543 17.9381C22.8045 17.4569 22.6656 17.0039 22.5009 16.6355C22.3396 16.2748 22.081 15.8439 21.7825 15.3464L21.7825 15.3464L21.7588 15.3069L21.1326 14.2632C21.0403 14.1094 20.9999 14.0419 20.9616 13.9749C20.5464 13.2473 20.2607 12.454 20.1167 11.6302C19.9145 11.6543 19.7087 11.6667 19.5 11.6667C19.1901 11.6667 18.8866 11.6394 18.5918 11.5871C18.7451 12.6891 19.1072 13.7519 19.6588 14.7184C19.7061 14.8012 19.7552 14.8831 19.8409 15.026L19.8412 15.0264L19.8463 15.035L20.4725 16.0786C20.8016 16.6271 21.0117 16.9798 21.1315 17.2478C21.2022 17.4058 21.2156 17.4804 21.2179 17.5045C21.2087 17.5289 21.1958 17.5518 21.1796 17.5722C21.1577 17.5826 21.0868 17.6095 20.915 17.6302C20.6235 17.6654 20.213 17.6667 19.5734 17.6667H6.42659C5.78704 17.6667 5.3765 17.6654 5.08502 17.6302C4.91321 17.6095 4.8423 17.5826 4.82047 17.5722C4.80423 17.5518 4.7913 17.5289 4.78213 17.5045C4.78444 17.4804 4.79786 17.4058 4.86849 17.2478C4.98832 16.9798 5.19842 16.6271 5.52747 16.0786L6.15367 15.035L6.15864 15.0267C6.24463 14.8834 6.29387 14.8013 6.34117 14.7184C6.9012 13.7372 7.26589 12.6568 7.4151 11.5369C7.4277 11.4423 7.43827 11.3472 7.45672 11.1811L7.45673 11.1811L7.4578 11.1714L7.73058 8.71636C8.02892 6.03133 10.2985 4 13 4C13.6355 4 14.2471 4.11241 14.8147 4.31928C15.0332 3.85084 15.3197 3.42059 15.6618 3.04129ZM18.123 4.82712C17.6978 5.17751 17.4085 5.68685 17.346 6.26421C17.7506 6.8422 18.0436 7.50645 18.1921 8.22756C18.5556 8.50314 19.0087 8.66667 19.5 8.66667C19.5919 8.66667 19.6824 8.66095 19.7713 8.64985L19.7603 8.55071C19.6017 7.12371 19.0092 5.84063 18.123 4.82712ZM21.2183 17.5108L21.2182 17.5136C21.2183 17.5136 21.2183 17.5132 21.2183 17.5124C21.2183 17.512 21.2183 17.5115 21.2183 17.5108ZM21.1875 17.5678C21.1876 17.5678 21.1869 17.5684 21.1852 17.5693C21.1867 17.5683 21.1875 17.5678 21.1875 17.5678ZM4.81248 17.5678C4.81254 17.5678 4.8134 17.5683 4.81488 17.5693C4.81316 17.5684 4.81242 17.5678 4.81248 17.5678ZM4.78178 17.5136C4.78172 17.5136 4.78165 17.5127 4.78171 17.5107C4.78186 17.5126 4.78183 17.5136 4.78178 17.5136Z" fill="black"/>
<path d="M9.86074 19.1367C10.0459 20.1733 10.4539 21.0893 11.0215 21.7426C11.5891 22.3959 12.2846 22.75 13 22.75C13.7154 22.75 14.4109 22.3959 14.9785 21.7426C15.5461 21.0893 15.9541 20.1733 16.1393 19.1367" stroke="black" stroke-width="1.5" stroke-linecap="round"/>
<circle cx="18.5" cy="7.5" r="3.5" fill="#EF466F"/>
</svg>
