<svg width="13" height="20" viewBox="0 0 13 20" fill="none" xmlns="http://www.w3.org/2000/svg">
<path fill-rule="evenodd" clip-rule="evenodd" d="M6.25 1.24993C4.92392 1.24993 3.65215 1.77671 2.71447 2.71439C1.77678 3.65207 1.25 4.92384 1.25 6.24992C1.25 7.57601 1.77678 8.84778 2.71447 9.78546C3.65215 10.7231 4.92392 11.2499 6.25 11.2499C7.57608 11.2499 8.84785 10.7231 9.78553 9.78546C10.7232 8.84778 11.25 7.57601 11.25 6.24992C11.25 4.92384 10.7232 3.65207 9.78553 2.71439C8.84785 1.77671 7.57608 1.24993 6.25 1.24993ZM4.93758e-10 6.24992C1.51951e-05 5.04044 0.350964 3.85695 1.01028 2.84297C1.6696 1.82899 2.60897 1.0281 3.71445 0.537431C4.81993 0.0467584 6.04403 -0.112616 7.2383 0.0786373C8.43257 0.269891 9.54568 0.803554 10.4427 1.61491C11.3396 2.42626 11.9819 3.48044 12.2916 4.6496C12.6013 5.81875 12.5651 7.05266 12.1875 8.20166C11.8098 9.35066 11.1068 10.3654 10.1639 11.1228C9.2209 11.8802 8.07842 12.3477 6.875 12.4687V14.9999H9.375C9.54076 14.9999 9.69973 15.0658 9.81694 15.183C9.93415 15.3002 10 15.4592 10 15.6249C10 15.7907 9.93415 15.9497 9.81694 16.0669C9.69973 16.1841 9.54076 16.2499 9.375 16.2499H6.875V19.3749C6.875 19.5407 6.80915 19.6997 6.69194 19.8169C6.57473 19.9341 6.41576 19.9999 6.25 19.9999C6.08424 19.9999 5.92527 19.9341 5.80806 19.8169C5.69085 19.6997 5.625 19.5407 5.625 19.3749V16.2499H3.125C2.95924 16.2499 2.80027 16.1841 2.68306 16.0669C2.56585 15.9497 2.5 15.7907 2.5 15.6249C2.5 15.4592 2.56585 15.3002 2.68306 15.183C2.80027 15.0658 2.95924 14.9999 3.125 14.9999H5.625V12.4687C4.08336 12.3137 2.65422 11.5917 1.61485 10.4426C0.57548 9.29352 -1.94646e-05 7.79934 4.93758e-10 6.24992Z" fill="white"/>
</svg>
