<svg width="17" height="17" viewBox="0 0 17 17" fill="none" xmlns="http://www.w3.org/2000/svg">
<path fill-rule="evenodd" clip-rule="evenodd" d="M10.3218 1.15043C10.1608 1.15043 10.0063 1.08983 9.89246 0.981964C9.7786 0.874096 9.71463 0.727795 9.71463 0.575247C9.71463 0.422698 9.7786 0.276397 9.89246 0.168529C10.0063 0.0606608 10.1608 6.10352e-05 10.3218 6.10352e-05H16.3932C16.5542 6.10352e-05 16.7086 0.0606608 16.8225 0.168529C16.9364 0.276397 17.0003 0.422698 17.0003 0.575247V6.3271C17.0003 6.47965 16.9364 6.62595 16.8225 6.73382C16.7086 6.84169 16.5542 6.90229 16.3932 6.90229C16.2322 6.90229 16.0777 6.84169 15.9639 6.73382C15.85 6.62595 15.786 6.47965 15.786 6.3271V1.96374L10.7723 6.71363C11.758 7.85617 12.2426 9.31392 12.1257 10.7854C12.0088 12.2569 11.2994 13.6295 10.1443 14.6194C8.98911 15.6093 7.47654 16.1408 5.91941 16.1038C4.36227 16.0669 2.87968 15.4644 1.77828 14.4209C0.676868 13.3775 0.0409008 11.9729 0.00190499 10.4978C-0.0370908 9.02259 0.523868 7.58963 1.56876 6.49527C2.61366 5.40091 4.06255 4.72887 5.61579 4.61813C7.16902 4.50739 8.70776 4.96643 9.91378 5.90032L14.9275 1.15043H10.3218ZM6.07179 5.75192C4.7836 5.75192 3.54817 6.23672 2.63729 7.09966C1.7264 7.96261 1.21467 9.13301 1.21467 10.3534C1.21467 11.5738 1.7264 12.7442 2.63729 13.6071C3.54817 14.4701 4.7836 14.9549 6.07179 14.9549C7.35998 14.9549 8.59541 14.4701 9.5063 13.6071C10.4172 12.7442 10.9289 11.5738 10.9289 10.3534C10.9289 9.13301 10.4172 7.96261 9.5063 7.09966C8.59541 6.23672 7.35998 5.75192 6.07179 5.75192Z" fill="#9D9D9D"/>
</svg>
